<svg width="20" height="20" viewBox="0 0 20 20" fill="none" xmlns="http://www.w3.org/2000/svg">
<g clip-path="url(#clip0_727_25416)">
<path d="M15.1583 14.2747L10.8833 9.99974L15.1583 5.72474C15.4 5.48307 15.4 5.08307 15.1583 4.84141C14.9167 4.59974 14.5166 4.59974 14.275 4.84141L9.99998 9.11641L5.72498 4.84141C5.48332 4.59974 5.08332 4.59974 4.84165 4.84141C4.59998 5.08307 4.59998 5.48307 4.84165 5.72474L9.11665 9.99974L4.84165 14.2747C4.59998 14.5164 4.59998 14.9164 4.84165 15.1581C5.08332 15.3997 5.48332 15.3997 5.72498 15.1581L9.99998 10.8831L14.275 15.1581C14.5166 15.3997 14.9167 15.3997 15.1583 15.1581C15.4 14.9164 15.4 14.5164 15.1583 14.2747Z" fill="#4D4D4D"/>
</g>
<defs>
<clipPath id="clip0_727_25416">
<rect width="20" height="20" fill="white"/>
</clipPath>
</defs>
</svg>
