<svg width="16" height="16" viewBox="0 0 16 16" fill="none" xmlns="http://www.w3.org/2000/svg">
<g clip-path="url(#clip0_727_25352)">
<path d="M14.6467 7.10012L8.31336 1.98012C8.1267 1.83345 7.8667 1.83345 7.6867 1.98012L1.35336 7.10012C1.14003 7.27345 1.1067 7.58678 1.28003 7.80012C1.45336 8.01345 1.7667 8.04678 1.9867 7.87345L2.70003 7.30012V13.6335C2.70003 13.9068 2.9267 14.1335 3.20003 14.1335H12.8134C13.0867 14.1335 13.3134 13.9068 13.3134 13.6335V7.30012L14.0267 7.87345C14.12 7.94678 14.2334 7.98678 14.34 7.98678C14.4867 7.98678 14.6334 7.92678 14.7267 7.80012C14.9 7.58678 14.8667 7.27345 14.6534 7.10012H14.6467ZM8.8867 13.1335H7.1067V11.1668C7.1067 10.6735 7.5067 10.2801 7.99336 10.2801C8.48003 10.2801 8.88003 10.6801 8.88003 11.1668V13.1335H8.8867ZM12.3067 13.1335H9.8867V11.1668C9.8867 10.1268 9.04003 9.28012 8.00003 9.28012C6.96003 9.28012 6.11336 10.1268 6.11336 11.1668V13.1335H3.69336V6.49345L8.00003 3.01345L12.3067 6.49345V13.1335Z" fill="#4D4D4D"/>
</g>
<defs>
<clipPath id="clip0_727_25352">
<rect width="16" height="16" fill="white"/>
</clipPath>
</defs>
</svg>
