<svg width="24" height="25" viewBox="0 0 24 25" fill="none" xmlns="http://www.w3.org/2000/svg">
<rect x="0.5" y="1" width="23" height="23" rx="3.5" fill="white"/>
<rect x="0.5" y="1" width="23" height="23" rx="3.5" stroke="#C9C9C9"/>
<g clip-path="url(#clip0_839_78954)">
<path d="M18.1666 11.9999C17.8899 11.9999 17.6666 12.2233 17.6666 12.4999C17.6666 15.6233 15.1233 18.1666 11.9999 18.1666C8.87659 18.1666 6.33325 15.6233 6.33325 12.4999C6.33325 9.37659 8.87659 6.83325 11.9999 6.83325C13.1199 6.83325 14.2033 7.15992 15.1299 7.77659C15.6366 8.11325 16.0866 8.53992 16.4599 9.01992H14.2166C13.9399 9.01992 13.7166 9.24325 13.7166 9.51992C13.7166 9.79659 13.9399 10.0199 14.2166 10.0199H17.3999C17.6766 10.0199 17.8999 9.79659 17.8999 9.51992V6.33325C17.8999 6.05659 17.6766 5.83325 17.3999 5.83325C17.1233 5.83325 16.8999 6.05659 16.8999 6.33325V7.98659C16.5366 7.59325 16.1266 7.23992 15.6799 6.94325C14.5866 6.21659 13.3133 5.83325 11.9966 5.83325C8.32325 5.83325 5.33325 8.82325 5.33325 12.4999C5.33325 16.1766 8.32325 19.1666 11.9999 19.1666C15.6766 19.1666 18.6666 16.1766 18.6666 12.4999C18.6666 12.2233 18.4433 11.9999 18.1666 11.9999Z" fill="#333333"/>
</g>
<defs>
<clipPath id="clip0_839_78954">
<rect width="16" height="16" fill="white" transform="translate(4 4.5)"/>
</clipPath>
</defs>
</svg>
