<svg width="20" height="21" viewBox="0 0 20 21" fill="none" xmlns="http://www.w3.org/2000/svg">
<g clip-path="url(#clip0_839_78949)">
<path d="M10.5874 10.4999L18.2124 2.87907C18.3749 2.71657 18.3749 2.45407 18.2124 2.29157C18.0499 2.12907 17.7874 2.12907 17.6249 2.29157L10.0041 9.9124L2.37907 2.2874C2.21657 2.1249 1.95407 2.1249 1.79157 2.2874C1.62907 2.4499 1.62907 2.7124 1.79157 2.8749L9.4124 10.4957L1.7874 18.1207C1.6249 18.2832 1.6249 18.5457 1.7874 18.7082C1.87074 18.7916 1.9749 18.8291 2.08324 18.8291C2.19157 18.8291 2.29574 18.7874 2.37907 18.7082L9.9999 11.0874L17.6207 18.7082C17.7041 18.7916 17.8082 18.8291 17.9166 18.8291C18.0249 18.8291 18.1291 18.7874 18.2124 18.7082C18.3749 18.5457 18.3749 18.2832 18.2124 18.1207L10.5916 10.4999H10.5874Z" fill="#333333"/>
</g>
<defs>
<clipPath id="clip0_839_78949">
<rect width="20" height="20" fill="white" transform="translate(0 0.5)"/>
</clipPath>
</defs>
</svg>
