<svg width="16" height="16" viewBox="0 0 16 16" fill="none" xmlns="http://www.w3.org/2000/svg">
<path d="M13.3334 7.49935H8.50008V2.66602C8.50008 2.39268 8.27341 2.16602 8.00008 2.16602C7.72675 2.16602 7.50008 2.39268 7.50008 2.66602V7.49935H2.66675C2.39341 7.49935 2.16675 7.72602 2.16675 7.99935C2.16675 8.27268 2.39341 8.49935 2.66675 8.49935H7.50008V13.3327C7.50008 13.606 7.72675 13.8327 8.00008 13.8327C8.27341 13.8327 8.50008 13.606 8.50008 13.3327V8.49935H13.3334C13.6067 8.49935 13.8334 8.27268 13.8334 7.99935C13.8334 7.72602 13.6067 7.49935 13.3334 7.49935Z" fill="#333333"/>
</svg>
