<svg width="20" height="20" viewBox="0 0 20 20" fill="none" xmlns="http://www.w3.org/2000/svg">
<g clip-path="url(#clip0_753_32129)">
<path d="M10 16.8076C10.6904 16.8076 11.25 16.248 11.25 15.5576C11.25 14.8673 10.6904 14.3076 10 14.3076C9.30964 14.3076 8.75 14.8673 8.75 15.5576C8.75 16.248 9.30964 16.8076 10 16.8076Z" fill="#4D4D4D"/>
<path d="M10 11.25C10.6904 11.25 11.25 10.6904 11.25 10C11.25 9.30964 10.6904 8.75 10 8.75C9.30964 8.75 8.75 9.30964 8.75 10C8.75 10.6904 9.30964 11.25 10 11.25Z" fill="#4D4D4D"/>
<path d="M10 5.69141C10.6904 5.69141 11.25 5.13176 11.25 4.44141C11.25 3.75105 10.6904 3.19141 10 3.19141C9.30964 3.19141 8.75 3.75105 8.75 4.44141C8.75 5.13176 9.30964 5.69141 10 5.69141Z" fill="#4D4D4D"/>
</g>
<defs>
<clipPath id="clip0_753_32129">
<rect width="20" height="20" fill="white"/>
</clipPath>
</defs>
</svg>
