<svg width="32" height="32" viewBox="0 0 32 32" xmlns="http://www.w3.org/2000/svg">
    <path d="M6 18v-5.756c0-.435 0-.653.109-.82a.921.921 0 0 1 .437-.34C6.76 11 7.04 11 7.6 11h2.8c.56 0 .84 0 1.054.085a.921.921 0 0 1 .437.34c.109.166.109.384.109.82V18M1 7.924v10.064h0L17 18V7.924a2 2 0 0 0-.71-1.528l-5.37-4.533h0c-.688-.474-1.033-.711-1.41-.802a2.172 2.172 0 0 0-1.02 0c-.377.09-.721.328-1.41.802L1.71 6.396A2 2 0 0 0 1 7.924z" stroke="#454545" fill="none" fill-rule="evenodd" stroke-linecap="round" stroke-linejoin="round"/>
</svg>
