<svg width="17" height="16" viewBox="0 0 17 16" fill="none" xmlns="http://www.w3.org/2000/svg">
<g clip-path="url(#clip0_749_61977)">
<path d="M13.68 3.99316H3.32004C3.05337 3.99316 2.83337 3.77316 2.83337 3.49316C2.83337 3.21316 3.05337 2.99316 3.32004 2.99316H13.68C13.9467 2.99316 14.1667 3.21316 14.1667 3.49316C14.1667 3.77316 13.9467 3.99316 13.68 3.99316Z" fill="#333333"/>
<path d="M13.68 8.5H3.32004C3.05337 8.5 2.83337 8.28 2.83337 8C2.83337 7.72 3.05337 7.5 3.32004 7.5H13.68C13.9467 7.5 14.1667 7.72 14.1667 8C14.1667 8.28 13.9467 8.5 13.68 8.5Z" fill="#333333"/>
<path d="M13.68 13H3.32004C3.05337 13 2.83337 12.78 2.83337 12.5C2.83337 12.22 3.05337 12 3.32004 12H13.68C13.9467 12 14.1667 12.22 14.1667 12.5C14.1667 12.78 13.9467 13 13.68 13Z" fill="#333333"/>
</g>
<defs>
<clipPath id="clip0_749_61977">
<rect width="16" height="16" fill="white" transform="translate(0.5)"/>
</clipPath>
</defs>
</svg>
