<svg width="14" height="13" viewBox="0 0 14 13" xmlns="http://www.w3.org/2000/svg">
    <g fill="none" fill-rule="evenodd" opacity=".4">
        <path stroke="#FFF" stroke-linecap="round" stroke-linejoin="round" d="M1 10.5h4"/>
        <path d="M13.744 9.423a.806.806 0 0 0 0-1.179.906.906 0 0 0-1.238 0l1.238 1.179zm-4.119 2.744-.619.589a.906.906 0 0 0 1.238 0l-.619-.59zM8.494 9.91a.906.906 0 0 0-1.238 0 .806.806 0 0 0 0 1.178l1.238-1.178zm4.012-1.667-3.5 3.333 1.238 1.179 3.5-3.333-1.238-1.179zm-2.262 3.333-1.75-1.666-1.238 1.178 1.75 1.667 1.238-1.179z" fill="#FFF" fill-rule="nonzero"/>
        <path stroke="#FFF" stroke-linecap="round" stroke-linejoin="round" d="M1 5.5h10M1 .5h10"/>
    </g>
</svg>
