<svg width="14" height="14" viewBox="0 0 14 14" xmlns="http://www.w3.org/2000/svg">
    <g fill="none" fill-rule="evenodd" opacity=".4">
        <g stroke="#FFF" stroke-linecap="round" stroke-linejoin="round">
            <path stroke-width="2" d="M2 1.5h10"/>
            <path d="M1.667 13h10.666c.369 0 .667-.336.667-.75V1.75c0-.414-.298-.75-.667-.75H1.667C1.298 1 1 1.336 1 1.75v10.5c0 .414.298.75.667.75z"/>
        </g>
        <path d="m5.287 10.625.33-.68h2.766l.33.68c.157.325.559.465.897.314a.638.638 0 0 0 .327-.862L7.653 5.375A.68.68 0 0 0 7 5a.68.68 0 0 0-.653.374l-2.284 4.702a.638.638 0 0 0 .327.862c.338.151.74.011.897-.314zM7 6 6 9h2L7 6z" fill="#FFF"/>
    </g>
</svg>
