<svg width="130" height="31" viewBox="0 0 130 31" fill="none" xmlns="http://www.w3.org/2000/svg">
<path d="M34.7 26.8914C34.3267 28.2514 33.7667 29.2381 33.02 29.8514C32.3 30.4914 31.2867 30.8114 29.98 30.8114H26.46L21.1 10.3314C20.9667 9.77144 20.86 9.18478 20.78 8.57144C20.7267 7.93144 20.7667 7.29144 20.9 6.65144L16.3 26.9714C16.0067 28.2514 15.4867 29.2114 14.74 29.8514C13.9933 30.4914 12.9267 30.8114 11.54 30.8114L8.06 30.8514L0.94 3.21144C0.726667 2.41144 0.82 1.81144 1.22 1.41145C1.62 0.984778 2.15333 0.771444 2.82 0.771444H5.94L11.9 25.8514C11.8733 25.3181 11.8867 24.7581 11.94 24.1714C11.9933 23.5581 12.0867 22.9981 12.22 22.4914L16.54 3.61144C16.8067 2.62478 17.22 1.90478 17.78 1.45144C18.34 0.998111 19.18 0.771444 20.3 0.771444H23.7L30.26 25.8514C30.2067 25.3181 30.2067 24.7581 30.26 24.1714C30.3133 23.5581 30.4067 22.9981 30.54 22.4914L34.66 3.41144C34.8733 2.39811 35.2733 1.70478 35.86 1.33144C36.4733 0.95811 37.3133 0.771444 38.38 0.771444H41.3L34.7 26.8914ZM62.8666 21.8914C63.1332 22.6648 63.0666 23.3181 62.6666 23.8514C62.2666 24.3581 61.7332 24.6114 61.0666 24.6114H58.2666L56.1866 19.1314H48.5066L49.3866 16.2514C49.8132 15.1848 50.5466 14.6514 51.5866 14.6514H54.5866L52.0666 7.41144C51.8532 6.90478 51.7199 6.43811 51.6666 6.01144C51.6399 5.58478 51.6532 5.15811 51.7066 4.73145L45.5466 22.3714C45.0132 23.8648 43.9732 24.6114 42.4266 24.6114H39.3866L47.5066 3.25144C47.8266 2.37144 48.3066 1.74478 48.9466 1.37144C49.5866 0.971444 50.3332 0.771444 51.1866 0.771444H54.7466L62.8666 21.8914ZM75.1719 22.2114C75.1719 22.9314 74.9319 23.5181 74.4519 23.9714C73.9719 24.3981 73.3852 24.6114 72.6919 24.6114H70.1319V15.0514L62.7319 2.93144C62.5452 2.69144 62.4519 2.43811 62.4519 2.17144C62.4785 1.90478 62.5585 1.67811 62.6919 1.49144C62.8252 1.27811 62.9985 1.10478 63.2119 0.971444C63.4519 0.83811 63.7052 0.771444 63.9719 0.771444H67.0119L71.8119 8.49144C72.0252 8.81144 72.1719 9.14478 72.2519 9.49144C72.3585 9.83811 72.4652 10.1848 72.5719 10.5314L77.5719 1.97145C77.8652 1.46478 78.1852 1.14478 78.5319 1.01144C78.9052 0.851444 79.3985 0.771444 80.0119 0.771444H83.7319L75.1719 15.0114V22.2114ZM106.408 27.5314C106.408 28.3314 106.114 29.0381 105.528 29.6514C104.941 30.2381 104.208 30.5314 103.328 30.5314H86.7278V3.41144C86.7278 2.55811 87.0078 1.90478 87.5678 1.45144C88.1278 0.998111 88.7278 0.771444 89.3678 0.771444H92.3278V27.0514C92.6478 26.4648 93.1011 26.0914 93.6878 25.9314C94.2745 25.7448 94.8745 25.6514 95.4878 25.6514H106.408V27.5314ZM117.411 20.4114C119.785 20.4114 121.518 19.7181 122.611 18.3314C123.705 16.9181 124.251 15.0248 124.251 12.6514C124.251 10.3048 123.705 8.42478 122.611 7.01144C121.518 5.57144 119.785 4.85144 117.411 4.85144C114.985 4.85144 113.211 5.57144 112.091 7.01144C110.971 8.42478 110.411 10.3048 110.411 12.6514C110.411 15.0248 110.958 16.9181 112.051 18.3314C113.171 19.7181 114.958 20.4114 117.411 20.4114ZM126.451 21.8114C125.411 22.8781 124.131 23.7048 122.611 24.2914C121.091 24.8514 119.358 25.1314 117.411 25.1314C115.411 25.1314 113.638 24.8514 112.091 24.2914C110.571 23.7048 109.291 22.8781 108.251 21.8114C107.211 20.7181 106.425 19.4114 105.891 17.8914C105.358 16.3448 105.091 14.5981 105.091 12.6514C105.091 10.7314 105.358 8.99811 105.891 7.45144C106.425 5.90478 107.211 4.59811 108.251 3.53144C109.291 2.46478 110.571 1.65144 112.091 1.09144C113.638 0.504777 115.411 0.211444 117.411 0.211444C119.358 0.211444 121.091 0.504777 122.611 1.09144C124.131 1.65144 125.411 2.46478 126.451 3.53144C127.491 4.59811 128.278 5.90478 128.811 7.45144C129.371 8.99811 129.651 10.7314 129.651 12.6514C129.651 14.5981 129.371 16.3448 128.811 17.8914C128.278 19.4114 127.491 20.7181 126.451 21.8114Z" fill="#007651"/>
</svg>
