<svg width="14" height="11" viewBox="0 0 14 11" xmlns="http://www.w3.org/2000/svg">
    <g fill="#FFF" fill-rule="evenodd" opacity=".4">
        <path d="M1.91 0C.854 0 0 .94 0 2.1v2.8C0 6.06.855 7 1.91 7h10.18C13.146 7 14 6.06 14 4.9V2.1C14 .94 13.145 0 12.09 0H1.91zm10.423 1H1.667C1.298 1 1 1.373 1 1.833v3.334c0 .46.298.833.667.833h10.666c.369 0 .667-.373.667-.833V1.833c0-.46-.298-.833-.667-.833z"/>
        <path d="M4 10.5c0-.276.26-.5.582-.5h4.654c.322 0 .582.224.582.5s-.26.5-.582.5H4.582C4.26 11 4 10.776 4 10.5zM2.62 8c-.343 0-.62.224-.62.5s.277.5.62.5h8.67c.342 0 .62-.224.62-.5s-.278-.5-.62-.5H2.62z" fill-rule="nonzero"/>
    </g>
</svg>
