<svg width="16" height="16" viewBox="0 0 16 16" fill="none" xmlns="http://www.w3.org/2000/svg">
<rect x="0.5" y="0.5" width="15" height="15" rx="7.5" fill="white" stroke="#DADDE5"/>
<rect x="3.41602" y="3.41666" width="9.16667" height="9.16667" rx="4.58333" fill="#FA1C44" stroke="#FA1C44" stroke-width="1.5"/>
<path d="M10.0893 7.57334L8.10119 8.89482C8.07156 8.91556 8.03897 8.92445 8.00341 8.92445C7.96786 8.92445 7.93823 8.91556 7.9086 8.89778L5.84638 7.58223L5.43453 7.83704C5.38416 7.86963 5.35156 7.92593 5.35156 7.98519C5.35156 8.04445 5.38119 8.10074 5.43156 8.13334L7.92341 9.72148C7.95304 9.73926 7.98564 9.74815 8.01823 9.74815C8.05082 9.74815 8.08638 9.73926 8.11601 9.71852L10.5042 8.13037C10.5545 8.09778 10.5842 8.04148 10.5812 7.98223C10.5812 7.92297 10.5516 7.86667 10.5012 7.83704L10.0893 7.57037V7.57334Z" fill="white"/>
<path d="M10.0893 8.98963L8.10119 10.3111C8.07156 10.3318 8.03897 10.3407 8.00341 10.3407C7.96786 10.3407 7.93823 10.3318 7.9086 10.3141L5.84638 8.99852L5.43453 9.25333C5.38416 9.28592 5.35156 9.34222 5.35156 9.40148C5.35156 9.46074 5.38119 9.51703 5.43156 9.54963L7.92341 11.1378C7.95304 11.1556 7.98564 11.1644 8.01823 11.1644C8.05082 11.1644 8.08638 11.1556 8.11601 11.1348L10.5042 9.54666C10.5545 9.51407 10.5842 9.45777 10.5812 9.39852C10.5812 9.33926 10.5516 9.28296 10.5012 9.25333L10.0893 8.98666V8.98963Z" fill="white"/>
<path d="M10.5042 6.3763L8.11304 4.83852C8.05675 4.80296 7.98267 4.8 7.92638 4.83852L5.43453 6.37333C5.38416 6.40593 5.35156 6.46222 5.35156 6.52148C5.35156 6.58074 5.38119 6.63704 5.43156 6.66963L5.69823 6.83852L6.36193 7.26222L7.92045 8.25482C7.95008 8.27259 7.98267 8.28148 8.01527 8.28148C8.04786 8.28148 8.08341 8.27259 8.11304 8.25185L9.60638 7.25926L10.2286 6.84444L10.5012 6.6637C10.5516 6.63111 10.5812 6.57482 10.5782 6.51556C10.5782 6.4563 10.5486 6.4 10.4982 6.37037L10.5042 6.3763Z" fill="white"/>
</svg>
