<svg width="16" height="16" viewBox="0 0 16 16" xmlns="http://www.w3.org/2000/svg">
    <g fill="none" fill-rule="evenodd" opacity=".4">
        <path stroke="#1A1A1A" stroke-linecap="round" stroke-linejoin="round" d="M2 12.5h4"/>
        <path d="M14.744 11.423a.806.806 0 0 0 0-1.179.906.906 0 0 0-1.238 0l1.238 1.179zm-4.119 2.744-.619.589a.906.906 0 0 0 1.238 0l-.619-.59zM9.494 11.91a.906.906 0 0 0-1.238 0 .806.806 0 0 0 0 1.178l1.238-1.178zm4.012-1.667-3.5 3.333 1.238 1.179 3.5-3.333-1.238-1.179zm-2.262 3.333-1.75-1.666-1.238 1.178 1.75 1.667 1.238-1.179z" fill="#1A1A1A" fill-rule="nonzero"/>
        <path stroke="#1A1A1A" stroke-linecap="round" stroke-linejoin="round" d="M2 7.5h10M2 2.5h10"/>
    </g>
</svg>
