<svg width="16" height="16" viewBox="0 0 16 16" xmlns="http://www.w3.org/2000/svg">
    <g fill="none" fill-rule="evenodd" opacity=".4">
        <g stroke="#1A1A1A" stroke-linecap="round" stroke-linejoin="round">
            <path stroke-width="2" d="M3 2.5h10"/>
            <path d="M2.667 14h10.666c.369 0 .667-.336.667-.75V2.75c0-.414-.298-.75-.667-.75H2.667C2.298 2 2 2.336 2 2.75v10.5c0 .414.298.75.667.75z"/>
        </g>
        <g fill="#1A1A1A" fill-rule="nonzero">
            <path d="M5.834 10.566a.8.8 0 0 0 1.132-1.132l-1.132 1.132zM4.8 8.4l-.566-.566a.8.8 0 0 0 0 1.132L4.8 8.4zm2.166-1.034a.8.8 0 0 0-1.132-1.132l1.132 1.132zm0 2.068-1.6-1.6-1.132 1.132 1.6 1.6 1.132-1.132zm-1.6-.468 1.6-1.6-1.132-1.132-1.6 1.6 1.132 1.132zM10.166 6.234a.8.8 0 0 0-1.132 1.132l1.132-1.132zM11.2 8.4l.566.566a.8.8 0 0 0 0-1.132L11.2 8.4zM9.034 9.434a.8.8 0 0 0 1.132 1.132L9.034 9.434zm0-2.068 1.6 1.6 1.132-1.132-1.6-1.6-1.132 1.132zm1.6.468-1.6 1.6 1.132 1.132 1.6-1.6-1.132-1.132z"/>
        </g>
    </g>
</svg>
