<svg width="12" height="12" viewBox="0 0 12 12" fill="none" xmlns="http://www.w3.org/2000/svg">
<g clip-path="url(#clip0_638_76010)">
<path d="M10.0302 9.50031C10.2952 9.13031 10.4502 8.68531 10.4502 8.20031C10.4502 6.95531 9.44018 5.94531 8.19518 5.94531C6.95019 5.94531 5.94019 6.95531 5.94019 8.20031C5.94019 9.44531 6.95019 10.4553 8.19518 10.4553C8.68018 10.4553 9.13018 10.2953 9.49518 10.0353L10.2452 10.7853C10.3202 10.8603 10.4152 10.8953 10.5102 10.8953C10.6052 10.8953 10.7002 10.8603 10.7752 10.7853C10.9202 10.6403 10.9202 10.4003 10.7752 10.2553L10.0252 9.50531L10.0302 9.50031ZM6.69519 8.20031C6.69519 7.37031 7.37019 6.69531 8.20019 6.69531C9.03018 6.69531 9.70518 7.37031 9.70518 8.20031C9.70518 9.03031 9.03018 9.70531 8.20019 9.70531C7.37019 9.70531 6.69519 9.03031 6.69519 8.20031Z" fill="#333333"/>
<path d="M8.46511 1.11035H3.53511C2.19511 1.11035 1.11011 2.20035 1.11011 3.53535V8.46035C1.11011 9.80035 2.20011 10.8854 3.53511 10.8854H4.85011C5.05511 10.8854 5.22511 10.7154 5.22511 10.5104C5.22511 10.3054 5.05511 10.1354 4.85011 10.1354H3.53511C2.61011 10.1354 1.86011 9.38535 1.86011 8.46035V3.53535C1.86011 2.61035 2.61011 1.86035 3.53511 1.86035H8.46011C9.38511 1.86035 10.1351 2.61035 10.1351 3.53535V4.85035C10.1351 5.05535 10.3051 5.22535 10.5101 5.22535C10.7151 5.22535 10.8851 5.05535 10.8851 4.85035V3.53535C10.8851 2.19535 9.79511 1.11035 8.46011 1.11035H8.46511Z" fill="#333333"/>
<path d="M3.85522 4.44043H8.15022C8.35522 4.44043 8.52522 4.27043 8.52522 4.06543C8.52522 3.86043 8.35522 3.69043 8.15022 3.69043H3.85522C3.65022 3.69043 3.48022 3.86043 3.48022 4.06543C3.48022 4.27043 3.65022 4.44043 3.85522 4.44043Z" fill="#333333"/>
<path d="M5.0951 5.62988H3.8501C3.6451 5.62988 3.4751 5.79988 3.4751 6.00488C3.4751 6.20988 3.6451 6.37988 3.8501 6.37988H5.0951C5.3001 6.37988 5.4701 6.20988 5.4701 6.00488C5.4701 5.79988 5.3001 5.62988 5.0951 5.62988Z" fill="#333333"/>
</g>
<defs>
<clipPath id="clip0_638_76010">
<rect width="12" height="12" fill="white"/>
</clipPath>
</defs>
</svg>
