<svg width="16" height="16" viewBox="0 0 16 16" fill="none" xmlns="http://www.w3.org/2000/svg">
<path d="M4.02675 4.73242H2.66675C2.39341 4.73242 2.16675 4.50576 2.16675 4.23242C2.16675 3.95909 2.39341 3.73242 2.66675 3.73242H4.02675C4.30008 3.73242 4.52675 3.95909 4.52675 4.23242C4.52675 4.50576 4.30008 4.73242 4.02675 4.73242Z" fill="#333333"/>
<path d="M13.3334 4.73242H6.16675C5.89341 4.73242 5.66675 4.50576 5.66675 4.23242C5.66675 3.95909 5.89341 3.73242 6.16675 3.73242H13.3334C13.6067 3.73242 13.8334 3.95909 13.8334 4.23242C13.8334 4.50576 13.6067 4.73242 13.3334 4.73242Z" fill="#333333"/>
<path d="M4.02675 8.5H2.66675C2.39341 8.5 2.16675 8.27333 2.16675 8C2.16675 7.72667 2.39341 7.5 2.66675 7.5H4.02675C4.30008 7.5 4.52675 7.72667 4.52675 8C4.52675 8.27333 4.30008 8.5 4.02675 8.5Z" fill="#333333"/>
<path d="M13.3334 8.5H6.16675C5.89341 8.5 5.66675 8.27333 5.66675 8C5.66675 7.72667 5.89341 7.5 6.16675 7.5H13.3334C13.6067 7.5 13.8334 7.72667 13.8334 8C13.8334 8.27333 13.6067 8.5 13.3334 8.5Z" fill="#333333"/>
<path d="M4.02675 12.2656H2.66675C2.39341 12.2656 2.16675 12.039 2.16675 11.7656C2.16675 11.4923 2.39341 11.2656 2.66675 11.2656H4.02675C4.30008 11.2656 4.52675 11.4923 4.52675 11.7656C4.52675 12.039 4.30008 12.2656 4.02675 12.2656Z" fill="#333333"/>
<path d="M13.3334 12.2656H6.16675C5.89341 12.2656 5.66675 12.039 5.66675 11.7656C5.66675 11.4923 5.89341 11.2656 6.16675 11.2656H13.3334C13.6067 11.2656 13.8334 11.4923 13.8334 11.7656C13.8334 12.039 13.6067 12.2656 13.3334 12.2656Z" fill="#333333"/>
</svg>
