<svg width="24" height="24" viewBox="0 0 24 24" fill="none" xmlns="http://www.w3.org/2000/svg">
<g clip-path="url(#clip0_727_25484)">
<path d="M20.1901 17.0198L19.1901 15.4898C19.1101 15.3598 19.0601 15.2198 19.0601 15.0698V9.81977C19.0601 6.17976 16.2901 3.16977 12.7501 2.79977V2.00977C12.7501 1.59977 12.4101 1.25977 12.0001 1.25977C11.5901 1.25977 11.2501 1.59977 11.2501 2.00977V2.79977C7.71005 3.17977 4.94005 6.17976 4.94005 9.81977V15.0698C4.94005 15.2198 4.90005 15.3698 4.82005 15.4898L3.82005 17.0198C3.47005 17.5598 3.44005 18.2598 3.75005 18.8298C4.06005 19.3998 4.65005 19.7498 5.30005 19.7498H18.7101C19.3601 19.7498 19.9601 19.3998 20.2601 18.8198C20.5701 18.2498 20.5401 17.5598 20.1901 17.0098V17.0198ZM18.9401 18.1098C18.9101 18.1598 18.8401 18.2498 18.7001 18.2498H5.29005C5.15005 18.2498 5.08005 18.1598 5.05005 18.1098C5.02005 18.0598 4.98005 17.9498 5.05005 17.8298L6.05005 16.2998C6.29005 15.9298 6.42005 15.4998 6.42005 15.0598V9.80977C6.42005 6.73977 8.92005 4.24977 11.9801 4.24977C15.0401 4.24977 17.5401 6.74977 17.5401 9.80977V15.0598C17.5401 15.4998 17.6701 15.9298 17.9101 16.2998L18.9101 17.8298C18.9901 17.9498 18.9501 18.0498 18.9201 18.0998L18.9401 18.1098Z" fill="white"/>
<path d="M13.6301 21.25H10.3801C9.97013 21.25 9.63013 21.59 9.63013 22C9.63013 22.41 9.97013 22.75 10.3801 22.75H13.6301C14.0401 22.75 14.3801 22.41 14.3801 22C14.3801 21.59 14.0401 21.25 13.6301 21.25Z" fill="white"/>
</g>
<defs>
<clipPath id="clip0_727_25484">
<rect width="24" height="24" fill="white"/>
</clipPath>
</defs>
</svg>
