<?xml version="1.0" encoding="iso-8859-1"?>
<!-- Uploaded to: SVG Repo, www.svgrepo.com, Generator: SVG Repo Mixer Tools -->
<svg fill="#000000" height="800px" width="800px" version="1.1" id="Capa_1" xmlns="http://www.w3.org/2000/svg" xmlns:xlink="http://www.w3.org/1999/xlink" 
	 viewBox="0 0 489.95 489.95" xml:space="preserve">
<g>
	<g>
		<g>
			<path d="M244.925,332.577c-48,0-87.6-38.6-87.6-87.6c0-48,38.6-87.6,87.6-87.6c48,0,87.6,38.6,87.6,87.6
				C332.525,292.977,292.925,332.577,244.925,332.577z M244.925,199.077c-25,0-45.9,20.9-45.9,45.9s20.9,45.9,45.9,45.9
				s45.9-20.9,45.9-45.9S269.925,199.077,244.925,199.077z"/>
			<g>
				<path d="M351.225,362.777c-8.3-8.3-8.3-20.9,0-29.2l88.7-88.6l-88.6-88.6c-8.3-8.3-8.3-20.9,0-29.2s20.9-8.3,29.2,0l103.2,103.2
					c8.3,8.3,8.3,20.9,0,29.2l-103.3,103.2C367.125,374.277,355.425,366.977,351.225,362.777z"/>
				<path d="M109.425,362.777l-103.2-103.2c-8.3-8.3-8.3-20.9,0-29.2l103.2-103.2c8.3-8.3,20.9-8.3,29.2,0s8.3,20.9,0,29.2
					l-89.7,88.6l88.6,88.6c8.3,8.3,8.3,20.9,0,29.2C134.425,366.977,122.425,374.377,109.425,362.777z"/>
			</g>
		</g>
	</g>
</g>
</svg>