<svg width="16" height="16" viewBox="0 0 16 16" xmlns="http://www.w3.org/2000/svg">
    <path d="M7.467 1.599c.171-.34.257-.51.373-.564a.379.379 0 0 1 .32 0c.116.055.202.224.373.564l1.624 3.22c.05.1.075.15.112.19a.372.372 0 0 0 .116.082c.05.022.106.03.218.047l3.633.52c.383.054.574.081.662.173.077.08.113.189.099.298-.017.124-.155.256-.432.52l-2.628 2.506a.802.802 0 0 0-.15.164.358.358 0 0 0-.043.133.78.78 0 0 0 .022.218l.62 3.539c.065.373.098.56.037.67a.371.371 0 0 1-.259.184c-.127.023-.298-.065-.64-.241L8.277 12.15c-.102-.052-.152-.078-.206-.089a.378.378 0 0 0-.142 0c-.054.01-.104.037-.205.089l-3.248 1.672c-.342.176-.513.264-.64.241a.371.371 0 0 1-.259-.184c-.061-.11-.028-.297.037-.67l.62-3.54c.02-.11.029-.165.022-.217a.358.358 0 0 0-.044-.133.8.8 0 0 0-.15-.164L1.436 6.65c-.276-.265-.415-.397-.432-.521a.359.359 0 0 1 .099-.298c.088-.092.28-.119.662-.174l3.633-.52a.827.827 0 0 0 .218-.046.371.371 0 0 0 .116-.082c.037-.04.062-.09.112-.19L7.467 1.6z" stroke="#FFF" fill="none" fill-rule="evenodd" opacity=".3" stroke-linecap="round" stroke-linejoin="round"/>
</svg>
