<svg width="24" height="25" viewBox="0 0 24 25" fill="none" xmlns="http://www.w3.org/2000/svg">
<g clip-path="url(#clip0_902_37926)">
<path d="M12 18.9466C8.18 18.9466 4.555 16.9966 2.31 13.7316C1.89 13.1216 1.89 12.3366 2.31 11.7316C4.555 8.4666 8.175 6.5166 12 6.5166C15.825 6.5166 19.445 8.4666 21.69 11.7316C22.11 12.3416 22.11 13.1266 21.69 13.7316C19.445 16.9966 15.825 18.9466 12 18.9466ZM12 8.0166C8.67 8.0166 5.515 9.7216 3.55 12.5816C3.485 12.6716 3.485 12.7916 3.55 12.8866C5.515 15.7466 8.675 17.4516 12 17.4516C15.325 17.4516 18.485 15.7466 20.45 12.8866C20.515 12.7966 20.515 12.6766 20.45 12.5816C18.485 9.7216 15.325 8.0166 12 8.0166Z" fill="#666666"/>
<path d="M11.9999 16.8216C9.74491 16.8216 7.90991 14.9866 7.90991 12.7316C7.90991 10.4766 9.74491 8.6416 11.9999 8.6416C14.2549 8.6416 16.0899 10.4766 16.0899 12.7316C16.0899 14.9866 14.2549 16.8216 11.9999 16.8216ZM11.9999 10.1416C10.5749 10.1416 9.40991 11.3016 9.40991 12.7316C9.40991 14.1616 10.5699 15.3216 11.9999 15.3216C13.4299 15.3216 14.5899 14.1616 14.5899 12.7316C14.5899 11.3016 13.4299 10.1416 11.9999 10.1416Z" fill="#666666"/>
</g>
<defs>
<clipPath id="clip0_902_37926">
<rect width="24" height="24" fill="white" transform="translate(0 0.731445)"/>
</clipPath>
</defs>
</svg>
