<svg width="16" height="16" viewBox="0 0 16 16" fill="none" xmlns="http://www.w3.org/2000/svg">
<g clip-path="url(#clip0_1976_38623)">
<path d="M13.5002 2.91667H12.3602V2.25C12.3602 1.97333 12.1368 1.75 11.8602 1.75C11.5835 1.75 11.3602 1.97333 11.3602 2.25V2.91667H4.64016V2.25C4.64016 1.97333 4.41683 1.75 4.14016 1.75C3.8635 1.75 3.64016 1.97333 3.64016 2.25V2.91667H2.50016C1.85683 2.91667 1.3335 3.44 1.3335 4.08333V13.0833C1.3335 13.7267 1.85683 14.25 2.50016 14.25H13.5002C14.1435 14.25 14.6668 13.7267 14.6668 13.0833V4.08333C14.6668 3.44 14.1435 2.91667 13.5002 2.91667ZM13.6668 13.0833C13.6668 13.1767 13.5935 13.25 13.5002 13.25H2.50016C2.40683 13.25 2.3335 13.1767 2.3335 13.0833V4.08333C2.3335 3.99 2.40683 3.91667 2.50016 3.91667H3.64016V4.25C3.64016 4.52667 3.8635 4.75 4.14016 4.75C4.41683 4.75 4.64016 4.52667 4.64016 4.25V3.91667H11.3602V4.25C11.3602 4.52667 11.5835 4.75 11.8602 4.75C12.1368 4.75 12.3602 4.52667 12.3602 4.25V3.91667H13.5002C13.5935 3.91667 13.6668 3.99 13.6668 4.08333V13.0833Z" fill="#333333"/>
<path d="M5.67318 7.08984H4.33984V8.42318H5.67318V7.08984Z" fill="#333333"/>
<path d="M8.66683 7.08984H7.3335V8.42318H8.66683V7.08984Z" fill="#333333"/>
<path d="M11.66 7.08984H10.3267V8.42318H11.66V7.08984Z" fill="#333333"/>
<path d="M5.67318 9.7832H4.33984V11.1165H5.67318V9.7832Z" fill="#333333"/>
<path d="M8.66683 9.7832H7.3335V11.1165H8.66683V9.7832Z" fill="#333333"/>
<path d="M11.66 9.7832H10.3267V11.1165H11.66V9.7832Z" fill="#333333"/>
</g>
<defs>
<clipPath id="clip0_1976_38623">
<rect width="16" height="16" fill="white"/>
</clipPath>
</defs>
</svg>
