<svg width="16" height="16" viewBox="0 0 16 16" fill="none" xmlns="http://www.w3.org/2000/svg">
<path d="M13.3468 10.4209C13.3201 10.3609 13.2868 10.3076 13.2401 10.2609L10.4268 7.44755C10.2334 7.25422 9.91345 7.25422 9.72012 7.44755C9.52678 7.64089 9.52678 7.96089 9.72012 8.15422L11.6801 10.1142H5.29345C4.37345 10.1142 3.62012 9.36755 3.62012 8.44089V2.57422C3.62012 2.30089 3.39345 2.07422 3.12012 2.07422C2.84678 2.07422 2.62012 2.30089 2.62012 2.57422V8.44089C2.62012 9.91422 3.82012 11.1142 5.29345 11.1142H11.6801L9.72012 13.0742C9.52678 13.2676 9.52678 13.5876 9.72012 13.7809C9.82012 13.8809 9.94678 13.9276 10.0734 13.9276C10.2001 13.9276 10.3268 13.8809 10.4268 13.7809L13.2401 10.9676C13.2868 10.9209 13.3201 10.8676 13.3468 10.8076C13.4001 10.6876 13.4001 10.5476 13.3468 10.4276V10.4209Z" fill="#333333"/>
</svg>
