<svg width="16" height="16" viewBox="0 0 16 16" xmlns="http://www.w3.org/2000/svg">
    <g fill="#1A1A1A" fill-rule="evenodd" opacity=".4">
        <path d="M2.91 2C1.854 2 1 2.94 1 4.1v2.8C1 8.06 1.855 9 2.91 9h10.18C14.146 9 15 8.06 15 6.9V4.1c0-1.16-.855-2.1-1.91-2.1H2.91zm10.423 1H2.667C2.298 3 2 3.373 2 3.833v3.334c0 .46.298.833.667.833h10.666c.369 0 .667-.373.667-.833V3.833c0-.46-.298-.833-.667-.833z"/>
        <path d="M5 12.5c0-.276.26-.5.582-.5h4.654c.322 0 .582.224.582.5s-.26.5-.582.5H5.582C5.26 13 5 12.776 5 12.5zM3.62 10c-.343 0-.62.224-.62.5s.277.5.62.5h8.67c.342 0 .62-.224.62-.5s-.278-.5-.62-.5H3.62z" fill-rule="nonzero"/>
    </g>
</svg>
