<svg width="17" height="16" viewBox="0 0 17 16" fill="none" xmlns="http://www.w3.org/2000/svg">
<g clip-path="url(#clip0_765_82355)">
<path d="M13.0533 14.3532C12.9733 14.3532 12.8933 14.3332 12.8266 14.2998L8.50663 12.0798L4.18663 14.2998C4.03329 14.3798 3.84663 14.3732 3.69996 14.2798C3.55329 14.1865 3.45996 14.0265 3.45996 13.8532V2.14648C3.45996 1.87315 3.68663 1.64648 3.95996 1.64648H13.06C13.3333 1.64648 13.56 1.87315 13.56 2.14648V13.8465C13.56 14.0198 13.4666 14.1798 13.32 14.2732C13.24 14.3198 13.1533 14.3465 13.06 14.3465L13.0533 14.3532ZM4.44663 2.64648V13.0265L8.26663 11.0598C8.41329 10.9865 8.57996 10.9865 8.72663 11.0598L12.5466 13.0265V2.64648H4.44663Z" fill="#333333"/>
</g>
<defs>
<clipPath id="clip0_765_82355">
<rect width="16" height="16" fill="white" transform="translate(0.5)"/>
</clipPath>
</defs>
</svg>
