<svg width="140" height="38" viewBox="0 0 140 38" fill="none" xmlns="http://www.w3.org/2000/svg">
<path d="M137.942 20.3279C138.235 20.4414 138.505 20.5691 138.751 20.711C139.007 20.853 139.224 21.0185 139.404 21.2077C139.593 21.3875 139.74 21.5956 139.844 21.8322C139.948 22.0592 140 22.3194 140 22.6127C139.99 23.0857 139.886 23.4878 139.688 23.8189C139.489 24.1501 139.229 24.4197 138.907 24.6278C138.595 24.8265 138.24 24.9731 137.843 25.0677C137.445 25.1529 137.043 25.1907 136.637 25.1813C136.381 25.1718 136.107 25.134 135.813 25.0677C135.53 25.0015 135.251 24.9116 134.976 24.7981C134.702 24.6846 134.442 24.5521 134.196 24.4008C133.95 24.2399 133.742 24.0649 133.571 23.8757L133.954 23.2229C134.059 22.9769 134.219 22.8445 134.437 22.8255C134.655 22.7972 134.867 22.8587 135.076 23.01C135.293 23.1709 135.549 23.3128 135.842 23.4358C136.135 23.5493 136.405 23.6155 136.651 23.6344C137.606 23.6817 138.084 23.3695 138.084 22.6978C138.084 22.4329 137.975 22.2295 137.758 22.0876C137.55 21.9362 137.313 21.8085 137.048 21.7044L135.884 21.2503C135.601 21.1273 135.326 20.9949 135.061 20.853C134.806 20.7016 134.584 20.5313 134.394 20.3421C134.205 20.1434 134.054 19.9258 133.94 19.6893C133.827 19.4433 133.77 19.1642 133.77 18.852C133.77 18.4168 133.85 18.0384 134.011 17.7167C134.182 17.395 134.404 17.1301 134.678 16.922C134.962 16.7139 135.284 16.5625 135.643 16.4679C136.012 16.3733 136.395 16.3307 136.793 16.3402C137.322 16.3496 137.829 16.4348 138.311 16.5956C138.803 16.747 139.234 16.9977 139.603 17.3477L139.234 17.9438C139.186 18.0289 139.12 18.1093 139.035 18.185C138.959 18.2607 138.869 18.3175 138.765 18.3553C138.661 18.3932 138.548 18.4073 138.425 18.3979C138.302 18.3884 138.179 18.3458 138.056 18.2702C137.895 18.1661 137.687 18.0762 137.431 18.0005C137.176 17.9248 136.954 17.887 136.764 17.887C136.405 17.8775 136.13 17.9485 135.941 18.0999C135.752 18.2418 135.657 18.431 135.657 18.6675C135.657 18.8473 135.695 18.9986 135.771 19.1216C135.847 19.2446 135.946 19.3534 136.069 19.448C136.192 19.5426 136.329 19.6278 136.48 19.7035C136.641 19.7792 136.802 19.8501 136.963 19.9163L137.942 20.3279Z" fill="white"/>
<path d="M132.698 24.1172C132.698 24.3915 132.613 24.6091 132.443 24.77C132.282 24.9213 132.088 24.997 131.861 24.997H130.868V19.0367C130.839 19.1502 130.806 19.2732 130.768 19.4057C130.731 19.5381 130.683 19.6659 130.627 19.7888L128.881 24.2165C128.786 24.4625 128.663 24.6375 128.512 24.7416C128.37 24.8362 128.19 24.8835 127.973 24.8835H127.05L125.078 19.9591C125.012 19.8078 124.96 19.6564 124.922 19.505C124.893 19.3537 124.865 19.2165 124.837 19.0935V24.1597C124.837 24.4057 124.747 24.6091 124.567 24.77C124.387 24.9213 124.184 24.997 123.957 24.997H122.992V17.348C122.992 17.1114 123.072 16.9175 123.233 16.7661C123.403 16.6147 123.597 16.5391 123.815 16.5391H125.404L127.916 23.0386C127.897 22.8494 127.916 22.646 127.973 22.4284C128.03 22.2014 128.086 22.0121 128.143 21.8608L129.96 17.2202C130.111 16.7661 130.452 16.5391 130.981 16.5391H132.698V24.1172Z" fill="white"/>
<path d="M120.398 23.4502C120.342 23.6678 120.275 23.8712 120.2 24.0604C120.133 24.2496 120.043 24.4152 119.93 24.5571C119.816 24.6895 119.675 24.7983 119.504 24.8835C119.343 24.9592 119.145 24.997 118.908 24.997H117.617L116.183 19.6327C116.136 19.4435 116.103 19.2638 116.084 19.0935C116.075 18.9137 116.084 18.7198 116.113 18.5116L114.821 23.663C114.698 24.1172 114.514 24.453 114.268 24.6706C114.031 24.8882 113.686 24.997 113.232 24.997H112.082L110.025 17.4757C109.939 17.1635 109.982 16.9317 110.152 16.7803C110.332 16.6195 110.559 16.5391 110.833 16.5391H111.685L113.359 23.4502C113.341 23.261 113.341 23.0907 113.359 22.9393C113.388 22.7879 113.416 22.6224 113.445 22.4426L114.708 17.4331C114.783 17.102 114.911 16.8702 115.091 16.7377C115.28 16.6053 115.531 16.5391 115.843 16.5391H117.092L118.837 23.4076C118.837 23.19 118.866 22.8683 118.922 22.4426L120.2 17.2202C120.275 16.9459 120.394 16.7661 120.554 16.681C120.725 16.5864 120.938 16.5391 121.193 16.5391H122.257L120.398 23.4502Z" fill="white"/>
<path d="M54.7749 20.1556V17.9689H55.6204C56.2612 17.9689 56.9175 18.08 56.9175 18.8995C56.9175 19.719 56.2381 19.8339 55.574 19.8339C55.574 19.8339 55.4891 19.8339 55.3771 19.8339C55.1764 19.8454 54.9216 19.9028 54.771 20.1556M55.713 16.4716H53.914C53.2808 16.4716 52.9333 16.778 52.9333 17.3486V24.6935H53.802C54.3811 24.6935 54.7787 24.4025 54.7787 23.8549V21.3312H55.1494L57.8711 24.6935H58.2649C58.7591 24.6935 59.1258 24.4829 59.2262 24.077C59.2687 23.9008 59.1258 23.6864 59.1258 23.6864L57.0333 21.1015C57.9638 21.0402 58.7668 20.1249 58.7668 19.0106C58.7668 18.2332 58.5043 17.5975 57.9869 17.1226C57.2418 16.4984 56.5276 16.4678 55.713 16.4678" fill="white"/>
<path d="M51.8252 16.4756H46.6597C45.8605 16.4794 45.4204 16.8662 45.4204 17.5938V26.934H46.2427C46.9801 26.934 47.4897 26.5663 47.4897 25.8694V22.4879H50.3427C51.0801 22.4879 51.5936 22.1164 51.5936 21.4195V20.8604H48.4201C48.146 20.8604 47.7136 20.8987 47.4897 21.274V18.107H50.5705C51.3079 18.107 51.8252 17.6704 51.8252 16.9734V16.4832" fill="white"/>
<path d="M100.269 16.4717C99.7088 16.4755 99.2919 16.7589 99.2803 17.3563L101.747 21.3888V24.6936H102.62C103.257 24.6936 103.608 24.3911 103.608 23.8128V21.4079L106.43 16.4793H105.087C104.685 16.4793 104.423 16.6249 104.291 16.8968L102.975 19.3706C102.824 19.6655 102.89 20.0944 102.89 20.0944L100.844 16.4717H100.269Z" fill="white"/>
<path d="M82.1931 16.4715C81.6024 16.4715 81.255 16.8085 81.282 17.3638L83.3783 24.7011H84.4207C84.8762 24.7011 85.2198 24.5211 85.3472 24.1803L86.7757 19.0067L88.8913 24.7011H89.7908C90.2464 24.7011 90.5707 24.5211 90.702 24.1803L92.6979 16.4677H91.4702C90.9683 16.4677 90.6942 16.6975 90.6016 17.1111L89.7098 21.649C89.6171 22.0741 89.6403 22.4456 89.6403 22.4456L87.6791 16.4639H86.602C86.1194 16.4639 85.7526 16.686 85.6484 17.0728L84.4786 21.8635C84.4246 22.143 84.4245 22.4149 84.4245 22.4149L82.9614 16.4639H82.197" fill="white"/>
<path d="M64.6155 17.9539C65.1908 17.9539 65.5884 17.6169 65.5884 17.0731V16.4795H61.3147C60.9981 16.4795 60.7549 16.5561 60.5927 16.7016C60.4306 16.8471 60.3457 17.0616 60.3418 17.345V24.7014H64.6155C65.1946 24.6976 65.5884 24.4142 65.5884 23.8743V23.2271C65.3954 23.2271 62.94 23.2271 62.8937 23.2271C62.6929 23.2271 62.3686 23.2539 62.1988 23.5449L62.1717 23.5947V21.3353H64.4379C65.017 21.3353 65.4108 21.0481 65.4108 20.5081V19.8609C65.4108 19.8609 62.9786 19.8609 62.9246 19.8609C62.7122 19.8609 62.3686 19.8916 62.1988 20.1826L62.1717 20.2324V17.9577H64.6194L64.6155 17.9539Z" fill="white"/>
<path d="M96.161 16.4717H97.022L100.377 23.9047C100.377 23.9047 100.377 23.9392 100.377 23.9545C100.377 24.1996 100.284 24.3834 100.13 24.5098C99.9676 24.6362 99.7437 24.7013 99.4696 24.7013H98.7013L97.9061 22.8861H95.2499L95.4893 22.3117C95.5974 22.0359 95.7209 21.8177 95.8908 21.6683C96.0607 21.519 96.2807 21.4424 96.5819 21.4424H97.2652L96.1533 18.8766L93.8717 24.1652V24.1728C93.7481 24.5213 93.4316 24.7013 93.0069 24.7013H91.814L95.2268 16.8968C95.3773 16.5866 95.7171 16.4755 96.1649 16.4755" fill="white"/>
<path d="M29.426 28.6764C28.8005 24.0044 26.4841 20.1979 24.1137 20.1787C21.7433 20.1787 18.2841 23.9929 16.265 28.684C14.2498 33.379 16.5276 37.1817 21.6043 37.1817C26.7081 37.1281 30.0475 33.356 29.426 28.6764Z" fill="#DE2437"/>
<path d="M5.23889 16.2461C2.20829 16.2461 0 18.6204 0 21.6265C0 24.6327 2.20829 26.9342 5.23889 26.9342C6.92213 26.9342 8.51658 26.1837 9.56667 24.8816C9.45085 24.7744 9.1613 24.1617 8.18842 24.1617C7.26959 24.1617 7.06111 25.0769 5.24275 25.0769C3.42439 25.0769 1.98051 23.5758 1.98051 21.6304C1.98051 19.685 3.45914 18.1111 5.24275 18.1111C6.86808 18.1111 7.25801 19.0684 8.0919 19.0684C8.9258 19.0684 9.41611 18.4059 9.52806 18.3025C8.47411 17.0005 6.92213 16.2499 5.23889 16.2499" fill="white"/>
<path d="M15.9214 16.5557H11.6631C10.9451 16.5557 10.4393 16.9846 10.4393 17.6662V18.2904H12.3349C12.3349 18.2904 12.4082 24.6512 12.3233 25.3405C12.2963 25.869 12.0685 27.1251 10.8485 27.6919C9.84864 28.1591 9.83705 28.6033 9.78687 29.2926C9.80231 29.3424 9.82161 29.373 9.8525 29.373H9.86408C9.90268 29.3615 10.864 29.1279 11.003 29.0705H10.9991C11.8986 28.7909 13.2769 28.1782 13.9332 26.9145C13.9332 26.9145 14.547 25.9762 14.5355 23.9619V18.2943H14.6242C15.3462 18.2943 15.9214 17.8654 15.9214 17.1837V16.5595" fill="white"/>
<path d="M37.8845 13.2127C33.4447 11.4818 28.9548 11.6618 27.8121 13.7144C26.6963 15.7976 28.3526 20.6075 31.5106 24.6323C34.6686 28.6571 39.1276 28.5231 41.5907 24.1191C44.0229 19.7305 42.3126 14.936 37.8845 13.2089" fill="#E98600"/>
<path d="M15.2958 14.6182C19.2376 17.2912 23.6541 18.0954 25.2177 16.3645C26.7967 14.6182 26.2523 9.51734 24.0749 4.89513C21.8975 0.272924 17.5196 -0.581055 14.1338 3.1642C10.7905 6.90562 11.3657 11.9529 15.2958 14.6182Z" fill="#007BC2"/>
<path d="M75.1745 16.4795H74.3213C74.0047 16.4795 73.7615 16.5561 73.5994 16.7016C73.4372 16.8471 73.3523 17.0616 73.3523 17.345V24.7014H74.1244C74.6997 24.7014 75.1784 24.4142 75.1784 23.8781V21.3315H77.4446C77.7998 21.3315 78.0816 21.2204 78.2476 21.0175L78.2746 20.983V24.7091H79.1278C79.4444 24.7091 79.6876 24.6325 79.8498 24.487C80.0119 24.3415 80.0968 24.127 80.0968 23.8436V16.4833H79.2514C78.6723 16.4833 78.2746 16.7667 78.2708 17.3067V19.8571C78.2708 19.8571 75.9775 19.8571 75.9196 19.8571C75.7073 19.8571 75.3675 19.8877 75.1977 20.175L75.1707 20.2247V16.4833" fill="white"/>
<path d="M69.3064 16.2998C68.0285 16.2998 66.6734 17.1193 66.6734 18.6358C66.6734 19.9225 67.6347 20.5046 68.5728 20.9029L69.3797 21.2667C70.1943 21.6037 70.4954 21.9139 70.4954 22.4117C70.4954 23.0244 70.0167 23.4878 69.3836 23.4878H69.2677C68.8855 23.4878 68.457 23.4533 68.1829 23.055L68.1597 23.0206C68.0632 22.8904 67.6965 22.3619 66.9822 22.3274L66.4302 22.4385L66.4649 22.741C66.6425 24.0737 67.8084 25.0081 69.3025 25.0081C70.9626 25.0081 72.1709 23.9167 72.1709 22.4117C72.1709 20.7842 70.9471 20.1178 70.0283 19.7578L69.2021 19.4055C68.4416 19.1145 68.3528 18.8273 68.3528 18.6358C68.3528 18.1954 68.8354 17.9005 69.2909 17.9005C69.565 17.9005 69.758 17.9388 69.9318 18.0729H69.9395C69.9935 18.1303 70.3024 18.3141 70.7464 18.3141C70.9008 18.3141 71.0745 18.2911 71.2598 18.2337L71.7849 17.9427L71.6112 17.6401C71.1209 16.7747 70.3024 16.2998 69.3064 16.2998Z" fill="white"/>
</svg>
