<svg width="22" height="22" viewBox="0 0 22 22" fill="none" xmlns="http://www.w3.org/2000/svg">
<g clip-path="url(#clip0_784_51962)">
<path d="M4.50085 3.5293H7.01252C7.38835 3.5293 7.70002 3.21763 7.70002 2.8418C7.70002 2.46596 7.38835 2.1543 7.01252 2.1543H2.84169C2.75002 2.1543 2.66752 2.17263 2.57585 2.2093C2.41085 2.28263 2.27335 2.41096 2.20002 2.58513C2.16335 2.66763 2.14502 2.7593 2.14502 2.85096V7.0218C2.14502 7.39763 2.45669 7.7093 2.83252 7.7093C3.20835 7.7093 3.52002 7.39763 3.52002 7.0218V4.51013L7.94752 8.93763C8.08502 9.07513 8.25919 9.1393 8.43335 9.1393C8.60752 9.1393 8.78169 9.07513 8.91919 8.93763C9.18502 8.6718 9.18502 8.2318 8.91919 7.96596L4.50085 3.5293Z" fill="#333333"/>
<path d="M19.7907 2.58513C19.7174 2.42013 19.5891 2.28263 19.4149 2.2093C19.3324 2.17263 19.2407 2.1543 19.1491 2.1543H14.9782C14.6024 2.1543 14.2907 2.46596 14.2907 2.8418C14.2907 3.21763 14.6024 3.5293 14.9782 3.5293H17.4899L13.0624 7.9568C12.7966 8.22263 12.7966 8.66263 13.0624 8.92846C13.1999 9.06596 13.3741 9.13013 13.5482 9.13013C13.7224 9.13013 13.8966 9.06596 14.0341 8.92846L18.4616 4.50096V7.01263C18.4616 7.38846 18.7732 7.70013 19.1491 7.70013C19.5249 7.70013 19.8366 7.38846 19.8366 7.01263V2.8418C19.8366 2.75013 19.8182 2.66763 19.7816 2.57596L19.7907 2.58513Z" fill="#333333"/>
<path d="M19.1584 14.291C18.7825 14.291 18.4709 14.6027 18.4709 14.9785V17.4902L14.0434 13.0627C13.7775 12.7968 13.3375 12.7968 13.0717 13.0627C12.8059 13.3285 12.8059 13.7685 13.0717 14.0343L17.4992 18.4618H14.9875C14.6117 18.4618 14.3 18.7735 14.3 19.1493C14.3 19.5252 14.6117 19.8368 14.9875 19.8368H19.1584C19.25 19.8368 19.3325 19.8185 19.4242 19.7818C19.5892 19.7085 19.7267 19.5802 19.8 19.406C19.8367 19.3235 19.855 19.2318 19.855 19.1402V14.9693C19.855 14.5935 19.5434 14.2818 19.1675 14.2818L19.1584 14.291Z" fill="#333333"/>
<path d="M7.9568 13.0711L3.5293 17.4986V14.9869C3.5293 14.6111 3.21763 14.2994 2.8418 14.2994C2.46596 14.2994 2.1543 14.6111 2.1543 14.9869V19.1577C2.1543 19.2494 2.17263 19.3319 2.2093 19.4236C2.28263 19.5886 2.41096 19.7261 2.58513 19.7994C2.66763 19.8361 2.7593 19.8544 2.85096 19.8544H7.0218C7.39763 19.8544 7.7093 19.5427 7.7093 19.1669C7.7093 18.7911 7.39763 18.4794 7.0218 18.4794H4.51013L8.93763 14.0519C9.20346 13.7861 9.20346 13.3461 8.93763 13.0802C8.6718 12.8144 8.2318 12.8144 7.96596 13.0802L7.9568 13.0711Z" fill="#333333"/>
</g>
<defs>
<clipPath id="clip0_784_51962">
<rect width="22" height="22" fill="white"/>
</clipPath>
</defs>
</svg>
