<svg width="16" height="16" viewBox="0 0 16 16" xmlns="http://www.w3.org/2000/svg">
    <g fill="#1A1A1A" fill-rule="nonzero" opacity=".4">
        <path d="m9.226 14.085.276.647-.276-.647zm-.452 0-.276.647.276-.647zM3 1.941h12V.955H3v.986zm12 .045V6.92h1V1.986h-1zM3 6.92V1.986H2V6.92h1zm-1-.044c0 5.587 5.344 7.688 6.498 8.079L9 14.05c-1.08-.365-6-2.54-6-7.174H2zm14 0c0 5.587-5.344 7.688-6.498 8.079L9 14.05c1.08-.365 6-2.54 6-7.174h1zm-7.05 6.562A.162.162 0 0 1 9 13.43c.021 0 .039.004.05.008l-.552 1.294c.326.11.678.11 1.004 0l-.552-1.294zM15 1.94h1a.993.993 0 0 0-1-.986v.986zM3 1c-.552 0-1 .442-1 .987h1V1zM11.78 6.309a.779.779 0 0 0 0-1.084.739.739 0 0 0-1.06 0l1.06 1.084zM8.25 8.833l-.53.542c.293.3.767.3 1.06 0l-.53-.542zm-.97-2.075a.739.739 0 0 0-1.06 0 .779.779 0 0 0 0 1.084l1.06-1.084zm3.44-1.533-3 3.066 1.06 1.084 3-3.066-1.06-1.084zM8.78 8.29l-1.5-1.533-1.06 1.084 1.5 1.533 1.06-1.084z"/>
    </g>
</svg>
