<svg width="12" height="12" viewBox="0 0 12 12" fill="none" xmlns="http://www.w3.org/2000/svg">
<g clip-path="url(#clip0_769_65507)">
<path d="M9.41497 10.7644C9.35497 10.7644 9.29497 10.7494 9.24497 10.7244L6.00497 9.05938L2.76497 10.7244C2.64997 10.7844 2.50997 10.7794 2.39997 10.7094C2.28997 10.6394 2.21997 10.5194 2.21997 10.3894V1.60938C2.21997 1.40438 2.38997 1.23438 2.59497 1.23438H9.41997C9.62497 1.23438 9.79497 1.40438 9.79497 1.60938V10.3844C9.79497 10.5144 9.72497 10.6344 9.61497 10.7044C9.55497 10.7394 9.48997 10.7594 9.41997 10.7594L9.41497 10.7644ZM2.95997 1.98438V9.76938L5.82497 8.29438C5.93497 8.23938 6.05997 8.23938 6.16997 8.29438L9.03497 9.76938V1.98438H2.95997Z" fill="#007651"/>
</g>
<defs>
<clipPath id="clip0_769_65507">
<rect width="12" height="12" fill="white"/>
</clipPath>
</defs>
</svg>
