<svg width="32" height="34" viewBox="0 0 32 34" xmlns="http://www.w3.org/2000/svg">
    <g fill="none" fill-rule="evenodd">
        <path d="M15.682 0a3.485 3.485 0 0 0-3.443 4.028c.469 4.502 1.866 8 4.193 10.494 2.369 2.538 5.829 4.311 10.38 5.319l-.23-.052a3.485 3.485 0 1 0 2.278-6.58l.008-.027c-3.135-.52-5.495-1.511-7.08-2.972-1.584-1.46-2.458-3.702-2.622-6.725l-.005-.191A3.485 3.485 0 0 0 15.681 0z" fill="#D2A60C"/>
        <path d="M15.682 33.106a3.485 3.485 0 0 0 3.442-4.029c-.468-4.501-1.866-7.999-4.193-10.493-2.369-2.539-5.829-4.312-10.38-5.319l.23.052a3.485 3.485 0 1 0-2.278 6.58l-.008.027c3.135.52 5.495 1.51 7.08 2.971 1.584 1.46 2.458 3.702 2.622 6.726l.005.191a3.485 3.485 0 0 0 3.48 3.294z" fill="#FFF" opacity=".595"/>
        <path d="M15.682 33.106a3.485 3.485 0 0 1-3.443-4.029c.469-4.501 1.866-7.999 4.193-10.493 2.369-2.539 5.829-4.312 10.38-5.319l-.23.052a3.485 3.485 0 1 1 2.278 6.58l.008.027c-3.135.52-5.495 1.51-7.08 2.971-1.584 1.46-2.458 3.702-2.622 6.726l-.005.191a3.485 3.485 0 0 1-3.48 3.294z" fill="#FBC817"/>
        <path d="M15.682 0a3.485 3.485 0 0 1 3.442 4.028c-.468 4.502-1.866 8-4.193 10.494-2.369 2.538-5.829 4.311-10.38 5.319l.23-.052a3.485 3.485 0 1 1-2.278-6.58l-.008-.027c3.135-.52 5.495-1.511 7.08-2.972 1.584-1.46 2.458-3.702 2.622-6.725l.005-.191A3.485 3.485 0 0 1 15.682 0z" fill="#FFF"/>
    </g>
</svg>
