<svg width="14" height="16" viewBox="0 0 14 16" xmlns="http://www.w3.org/2000/svg">
    <g fill="#FFF" fill-rule="nonzero" opacity=".4">
        <path d="m7.226 14.26.276.656-.276-.656zm-.452 0-.276.656.276-.656zM1 1.955h12v-1H1v1zM13 2v5h1V2h-1zM1 7V2H0v5h1zm-1-.045c0 5.662 5.344 7.79 6.498 8.186L7 14.225c-1.08-.37-6-2.573-6-7.27H0zm14 0c0 5.662-5.344 7.79-6.498 8.186L7 14.225c1.08-.37 6-2.573 6-7.27h1zm-7.05 6.65a.16.16 0 0 1 .05-.008.16.16 0 0 1 .05.007l-.552 1.312c.326.112.678.112 1.004 0l-.552-1.312zM13 1.954h1a1 1 0 0 0-1-1v1zM1 1a1 1 0 0 0-1 1h1V1zM9.78 6.309a.779.779 0 0 0 0-1.084.739.739 0 0 0-1.06 0l1.06 1.084zM6.25 8.833l-.53.542c.293.3.767.3 1.06 0l-.53-.542zm-.97-2.075a.739.739 0 0 0-1.06 0 .779.779 0 0 0 0 1.084l1.06-1.084zm3.44-1.533-3 3.066 1.06 1.084 3-3.066-1.06-1.084zM6.78 8.29l-1.5-1.533-1.06 1.084 1.5 1.533 1.06-1.084z"/>
    </g>
</svg>
