<svg width="14" height="14" viewBox="0 0 14 14" xmlns="http://www.w3.org/2000/svg">
    <g fill="none" fill-rule="evenodd" opacity=".4">
        <g stroke="#FFF" stroke-linecap="round" stroke-linejoin="round">
            <path stroke-width="2" d="M2 1.5h10"/>
            <path d="M1.667 13h10.666c.369 0 .667-.336.667-.75V1.75c0-.414-.298-.75-.667-.75H1.667C1.298 1 1 1.336 1 1.75v10.5c0 .414.298.75.667.75z"/>
        </g>
        <path d="M4.834 9.566a.8.8 0 0 0 1.132-1.132L4.834 9.566zM3.8 7.4l-.566-.566a.8.8 0 0 0 0 1.132L3.8 7.4zm2.166-1.034a.8.8 0 0 0-1.132-1.132l1.132 1.132zm0 2.068-1.6-1.6-1.132 1.132 1.6 1.6 1.132-1.132zm-1.6-.468 1.6-1.6-1.132-1.132-1.6 1.6 1.132 1.132zM9.166 5.234a.8.8 0 0 0-1.132 1.132l1.132-1.132zM10.2 7.4l.566.566a.8.8 0 0 0 0-1.132L10.2 7.4zM8.034 8.434a.8.8 0 0 0 1.132 1.132L8.034 8.434zm0-2.068 1.6 1.6 1.132-1.132-1.6-1.6-1.132 1.132zm1.6.468-1.6 1.6 1.132 1.132 1.6-1.6-1.132-1.132z" fill="#FFF" fill-rule="nonzero"/>
    </g>
</svg>
